<svg id="bb81e332-1a75-4eae-8a32-980ec0f9a557" data-name="Capa 1" xmlns="http://www.w3.org/2000/svg" width="2007.64" height="390" viewBox="0 0 2007.64 390">
  <g>
    <g id="eb18839f-a063-460b-aa37-9343b5beb417" data-name="g17222">
      <g id="aa802a8a-9bcf-47dc-8ad6-8aca81acbfd0" data-name="g17228">
        <path id="b9784124-aca7-4144-b49f-25402b43e1ae" data-name="path17230" d="M516,493.66,310,530.89V323l206-37.23ZM272,216a51.41,51.41,0,0,0-51,51.76V602H555.44A51.68,51.68,0,0,0,607,550.21V216H272Z" transform="translate(-221 -216)" style="fill: #1a5dad"/>
      </g>
    </g>
    <path d="M1095.09,270H1043l.17,195.55c.24,49.64,25.52,78.89,80,79.15,23.14,0,37.07-7.46,42.8-19.4V495.13c-9,4-21.13,5.73-36.22,5.73-11.28,0-20.68-2.84-27.16-9.71s-9.62-17.22-9.62-31.72V368h44.25c21.63,0,30.71-13.5,30.75-23.45V324h-73Z" transform="translate(-221 -216)" style="fill: #838288"/>
    <path d="M912,325.5c-67.47.09-96.9,46.2-97,91.57V545h50V420.59c0-16,4.13-28.86,11.51-37.76s18-13.65,30.27-13.65c14.33,0,26.09,4.21,34.12,13.47s12.1,23.2,12.1,41.93L953.06,545H1004V420c-.13-61-41.68-94.32-92.55-94.43" transform="translate(-221 -216)" style="fill: #838288"/>
    <rect x="505" y="55" width="50" height="274" style="fill: #838288"/>
    <path d="M1375,409V545h51V418.42c0-17,3.4-29.17,10.34-37.27s17.28-11.66,29.91-11.64a78.21,78.21,0,0,1,13.75,1.15v-40c-6.39-3.19-14.71-5.32-25.63-5.32-56.72.11-78.87,40.3-79.07,83.42" transform="translate(-221 -216)" style="fill: #838288"/>
    <path d="M1903,409V545h51V418.42c0-17,3.4-29.17,10.34-37.27s17.28-11.66,29.91-11.64a78.21,78.21,0,0,1,13.75,1.15v-40c-6.39-3.2-14.67-5.33-25.67-5.33-56.72.11-78.87,40.3-79.07,83.42" transform="translate(-221 -216)" style="fill: #838288"/>
    <path d="M1332.21,444.82c16-7.91,22.83-19.93,22.91-39.31,0-50.51-40.82-81.74-85.14-81.78h0c-61.16.08-104.46,44.11-104.62,115.58,0,65,52,105.54,105,105.58,31.58,0,51.24-4.89,62.64-14.23V494.49c-16.26,8-35.49,10.54-52.54,10.54-32.69.06-59-17.83-63.27-46.49l-.43-2.54h38.18C1290.93,456,1316.26,452.73,1332.21,444.82ZM1216.33,425l.15-2.34.39-7.26c1.2-25.84,20.34-48.32,48-48.32,12.85,0,23.64,2.82,31.39,8.6s12.14,14.76,12.09,26.13c.22,8.28-3.77,15-13.77,18.34h0c-9.89,3.47-25.8,4.82-51.6,4.85Z" transform="translate(-221 -216)" style="fill: #838288"/>
    <path d="M1544,445.61v2.72c3.73,28.82,26.16,54.29,57.91,54.29,16.83,0,34.89-2.68,51.09-10.05v34.18c-11.21,9.38-29.91,19.44-61,19.44-51.7,0-103.42-40.22-103.42-105.9,0-71.72,43-115.29,102.8-115.29h.62c30.52,0,49.84,8.71,61,18.77v34.85c-16.2-8-34.27-10.72-51.09-10.72-31.77,0-53.58,24.8-57.91,53.62C1542.13,432.88,1544,445.61,1544,445.61Z" transform="translate(-221 -216)" style="fill: #838288"/>
    <path d="M1778.93,324c-70.21,0-108.68,52-108.68,117.41,0,58,37.8,106.61,103.28,105.26,70.88,0,108.68-47.91,108.68-113.36C1882.89,375.94,1845.09,324,1778.93,324Zm.72,177.46c-37.13,0-53.33-23.62-53.33-67.47,0-36.44,16.2-62.75,48.6-62.75,36.45,0,53.33,26.32,53.33,71.52C1828.21,477.83,1812,501.44,1779.65,501.44Z" transform="translate(-221 -216)" style="fill: #838288"/>
    <path d="M2128.68,323.65c-77.82,0-110.68,50.59-110.68,123.75v121c0,23.93,19.45,37.6,38.23,37.6H2073V519.87c10.73,19.14,30.83,29.4,55.7,29.4,64.39,0,99.94-47.17,99.94-117.6C2228.62,377,2186.36,323.65,2128.68,323.65Zm-.19,180.52c-33.87,0-56-25.3-56-69.05,0-37.6,17.28-63.58,48.39-63.58,36.64,0,53.92,21.88,53.92,73.84C2174.81,480.25,2155.45,504.17,2128.49,504.17Z" transform="translate(-221 -216)" style="fill: #838288"/>
  </g>
</svg>
